<svg id="icons" xmlns="http://www.w3.org/2000/svg" viewBox="0 0 32 32"><defs><style>.cls-1{fill:#263238;}.cls-2{fill:#586a73;}</style></defs><title>Black Olives</title><path class="cls-1" d="M16,18a7,7,0,1,0,7,7,7,7,0,0,0-7-7Zm0,10a3,3,0,1,1,3-3,3,3,0,0,1-3,3Z"/><path class="cls-2" d="M16,20a5,5,0,1,0,5,5,5,5,0,0,0-5-5Zm0,8a3,3,0,1,1,3-3,3,3,0,0,1-3,3Z"/><path class="cls-1" d="M25,2a7,7,0,1,0,7,7,7,7,0,0,0-7-7Zm0,10a3,3,0,1,1,3-3,3,3,0,0,1-3,3Z"/><path class="cls-2" d="M25,4a5,5,0,1,0,5,5,5,5,0,0,0-5-5Zm0,8a3,3,0,1,1,3-3,3,3,0,0,1-3,3Z"/><path class="cls-1" d="M7,2a7,7,0,1,0,7,7A7,7,0,0,0,7,2ZM7,12a3,3,0,1,1,3-3,3,3,0,0,1-3,3Z"/><path class="cls-2" d="M7,4a5,5,0,1,0,5,5A5,5,0,0,0,7,4Zm0,8a3,3,0,1,1,3-3,3,3,0,0,1-3,3Z"/></svg>