<svg id="icons" xmlns="http://www.w3.org/2000/svg" viewBox="0 0 32 32"><defs><style>.cls-1{fill:#a3a22f;}.cls-2{fill:#b1b150;}</style></defs><title>Capers</title><path class="cls-1" d="M6,17.67C6,12.14,16,6,16,6s10,6.14,10,11.67S21.52,26,16,26,6,23.19,6,17.67Z"/><path class="cls-2" d="M16,23.77a.5.5,0,0,1-.5-.5V10.55a.5.5,0,0,1,1,0V23.27A.5.5,0,0,1,16,23.77Z"/><path class="cls-2" d="M19.64,22.86a.5.5,0,0,1-.35-.85c.14-.15,3.31-3.48-.08-9.4a.5.5,0,1,1,.87-.5c3.78,6.62,0,10.56-.08,10.6A.5.5,0,0,1,19.64,22.86Z"/><path class="cls-2" d="M12.36,22.86a.5.5,0,0,1-.35-.15s-3.86-4-.08-10.6a.5.5,0,1,1,.87.5c-3.41,6-.11,9.36-.08,9.4a.5.5,0,0,1-.35.85Z"/></svg>