<svg id="icons" xmlns="http://www.w3.org/2000/svg" viewBox="0 0 32 32"><defs><style>.cls-1{fill:#f9a825;}.cls-2{fill:#ffd54f;}.cls-3{fill:#fff;}</style></defs><title>Cheese Sauce</title><path class="cls-1" d="M23,32H9a2,2,0,0,1-2-2V14a6,6,0,0,1,6-6h0V4h6V8h0a6,6,0,0,1,6,6V30A2,2,0,0,1,23,32Z"/><rect class="cls-2" x="13" width="6" height="4"/><rect class="cls-3" x="9" y="13" width="14" height="16" rx="1" ry="1"/><path class="cls-2" d="M17.27,22.91a.79.79,0,0,1,.79-.78.8.8,0,0,1,.28.05l2.1-4.49a8.89,8.89,0,0,0-8.89,0l2.86,6.08a.63.63,0,0,1,1,.54.62.62,0,0,1-.43.59l.75,1.6h.62l1.37-2.91A.78.78,0,0,1,17.27,22.91ZM16,18.06a.31.31,0,1,1-.32.31A.31.31,0,0,1,16,18.06Zm-1.9,2.19a.63.63,0,1,1,.63-.62A.63.63,0,0,1,14.1,20.25ZM15.37,22a.47.47,0,1,1,.48-.47A.47.47,0,0,1,15.37,22Zm.79,1.88a.31.31,0,1,1,.32-.31A.32.32,0,0,1,16.16,23.84Zm.63-3.91a.79.79,0,1,1,.79.78A.79.79,0,0,1,16.79,19.94Z"/></svg>