<svg id="icons" xmlns="http://www.w3.org/2000/svg" viewBox="0 0 32 32"><defs><style>.cls-1{fill:#db2626;}.cls-2{fill:#38833c;}</style></defs><title>Chili Pepper</title><path class="cls-1" d="M29.27,16.61S20,28,2,28A77.19,77.19,0,0,0,23.82,10.86Z"/><path class="cls-2" d="M31.8,9.22a.74.74,0,0,0,0-1,.66.66,0,0,0-1,0l-3.4,3.56h0l-.17-.18a1.88,1.88,0,0,0-2.75,0l4.07,4.26a2.11,2.11,0,0,0,0-2.88l-.18-.19h0Z"/><path class="cls-1" d="M16.36,9.16S10.81,16,0,16A46.31,46.31,0,0,0,13.09,5.71Z"/><path class="cls-2" d="M17.88,4.73a.44.44,0,0,0,0-.61.4.4,0,0,0-.58,0l-2,2.14h0l-.1-.11a1.13,1.13,0,0,0-1.65,0l2.44,2.56a1.26,1.26,0,0,0,0-1.73l-.11-.11h0Z"/></svg>