<svg id="icons" xmlns="http://www.w3.org/2000/svg" viewBox="0 0 32 32"><defs><style>.cls-1{fill:#d6eac0;}.cls-2{fill:#525fab;}.cls-3{fill:#d4d6e3;}</style></defs><title>Garlick sauce</title><path class="cls-1" d="M23,32H9a2,2,0,0,1-2-2V14a6,6,0,0,1,6-6h0V4h6V8h0a6,6,0,0,1,6,6V30A2,2,0,0,1,23,32Z"/><rect class="cls-2" x="13" width="6" height="4"/><rect class="cls-2" x="9" y="13" width="14" height="16" rx="1" ry="1"/><path class="cls-3" d="M17,18.18V17H15v1.18a1,1,0,0,1-.76.92A3,3,0,0,0,12,22.16,3.11,3.11,0,0,0,15.17,25h1.66A3.11,3.11,0,0,0,20,22.16a3,3,0,0,0-2.24-3.06A1,1,0,0,1,17,18.18Z"/></svg>