<svg id="icons" xmlns="http://www.w3.org/2000/svg" viewBox="0 0 32 32"><defs><style>.cls-1{fill:#c4e0a3;}.cls-2{fill:#aed580;}.cls-3{fill:#8bc34a;}</style></defs><title>Jalapeños</title><circle class="cls-1" cx="13.5" cy="24" r="0.5"/><circle class="cls-1" cx="18.5" cy="24" r="0.5"/><circle class="cls-1" cx="16" cy="27" r="0.5"/><circle class="cls-1" cx="16" cy="21" r="0.5"/><polygon class="cls-2" points="20 22 18 20 16 23.29 14 20 12 22 15.29 24 12 26 14 28 16 24.71 18 28 20 26 16.71 24 20 22"/><path class="cls-3" d="M19.59,20.41a3.87,3.87,0,0,0-7.17,0,3.87,3.87,0,0,0,0,7.17,3.87,3.87,0,0,0,7.17,0A3.87,3.87,0,0,0,19.59,20.41Zm-1.2,6a2.58,2.58,0,0,1-4.78,0,2.58,2.58,0,0,1,0-4.78,2.58,2.58,0,0,1,4.78,0A2.58,2.58,0,0,1,18.39,26.39Z"/><circle class="cls-1" cx="23.5" cy="9" r="0.5"/><circle class="cls-1" cx="28.5" cy="9" r="0.5"/><circle class="cls-1" cx="26" cy="12" r="0.5"/><circle class="cls-1" cx="26" cy="6" r="0.5"/><polygon class="cls-2" points="30 7 28 5 26 8.29 24 5 22 7 25.29 9 22 11 24 13 26 9.71 28 13 30 11 26.71 9 30 7"/><path class="cls-3" d="M29.59,5.41a3.87,3.87,0,0,0-7.17,0,3.87,3.87,0,0,0,0,7.17,3.87,3.87,0,0,0,7.17,0A3.87,3.87,0,0,0,29.59,5.41Zm-1.2,6a2.58,2.58,0,0,1-4.78,0,2.58,2.58,0,0,1,0-4.78,2.58,2.58,0,0,1,4.78,0A2.58,2.58,0,0,1,28.39,11.39Z"/><circle class="cls-1" cx="3.5" cy="9" r="0.5"/><circle class="cls-1" cx="8.5" cy="9" r="0.5"/><circle class="cls-1" cx="6" cy="12" r="0.5"/><circle class="cls-1" cx="6" cy="6" r="0.5"/><polygon class="cls-2" points="10 7 8 5 6 8.29 4 5 2 7 5.29 9 2 11 4 13 6 9.71 8 13 10 11 6.71 9 10 7"/><path class="cls-3" d="M9.59,5.41a3.87,3.87,0,0,0-7.17,0,3.87,3.87,0,0,0,0,7.17,3.87,3.87,0,0,0,7.17,0A3.87,3.87,0,0,0,9.59,5.41Zm-1.2,6a2.58,2.58,0,0,1-4.78,0,2.58,2.58,0,0,1,0-4.78,2.58,2.58,0,0,1,4.78,0A2.58,2.58,0,0,1,8.39,11.39Z"/></svg>