<svg id="icons" xmlns="http://www.w3.org/2000/svg" viewBox="0 0 32 32"><defs><style>.cls-1{fill:#db2626;}.cls-2{fill:#ffe0b2;}.cls-3{fill:#fff;}.cls-4{fill:#38833c;}</style></defs><title>Ketchup</title><path class="cls-1" d="M23,32H9a2,2,0,0,1-2-2V14a6,6,0,0,1,6-6h0V4h6V8h0a6,6,0,0,1,6,6V30A2,2,0,0,1,23,32Z"/><rect class="cls-2" x="13" width="6" height="4"/><rect class="cls-3" x="9" y="13" width="14" height="16" rx="1" ry="1"/><circle class="cls-1" cx="16" cy="22" r="4"/><path class="cls-4" d="M18.4,18H16.5V16h-1v2H13.44a2.79,2.79,0,0,0,1.92,1h.06A4.07,4.07,0,0,0,16,20a3.51,3.51,0,0,0,.6-1.05,2.4,2.4,0,0,0,1.72-.87Z"/></svg>