<svg id="icons" xmlns="http://www.w3.org/2000/svg" viewBox="0 0 32 32"><defs><style>.cls-1{fill:#ffb300;}.cls-2{fill:#db2626;}.cls-3{fill:#8bc34a;}</style></defs><title>Mixed Peppers</title><path class="cls-1" d="M27,14c-2.71-5.36-9.25-5.36-12,0-5.36,2.71-5.36,9.25,0,12,2.71,5.36,9.25,5.36,12,0C32.34,23.27,32.34,16.73,27,14ZM25.35,24.35c-2,3.9-6.73,3.9-8.69,0-3.9-2-3.9-6.73,0-8.69,2-3.9,6.73-3.9,8.69,0C29.25,17.62,29.25,22.38,25.35,24.35Z"/><path class="cls-2" d="M17,14C14.27,8.66,7.73,8.66,5,14-.34,16.73-.34,23.27,5,26c2.71,5.36,9.25,5.36,12,0C22.34,23.27,22.34,16.73,17,14ZM15.35,24.35c-2,3.9-6.73,3.9-8.69,0-3.9-2-3.9-6.73,0-8.69,2-3.9,6.73-3.9,8.69,0C19.25,17.62,19.25,22.38,15.35,24.35Z"/><path class="cls-3" d="M22,6C19.27.66,12.73.66,10,6c-5.36,2.71-5.36,9.25,0,12,2.71,5.36,9.25,5.36,12,0C27.34,15.27,27.34,8.73,22,6ZM20.35,16.35c-2,3.9-6.73,3.9-8.69,0-3.9-2-3.9-6.73,0-8.69,2-3.9,6.73-3.9,8.69,0C24.25,9.62,24.25,14.38,20.35,16.35Z"/></svg>