<svg id="icons" xmlns="http://www.w3.org/2000/svg" viewBox="0 0 32 32"><defs><style>.cls-1{fill:#e3e0da;}.cls-2{fill:#d4d1cb;}</style></defs><title>Mozzarella</title><ellipse class="cls-1" cx="16" cy="16" rx="16" ry="13"/><path class="cls-2" d="M14,21a17.46,17.46,0,0,1,1.95-3.05,28.82,28.82,0,0,1,2.35-2.65,28.31,28.31,0,0,1,2.65-2.35A17.24,17.24,0,0,1,24,11a17.24,17.24,0,0,1-1.94,3.06,28.31,28.31,0,0,1-2.35,2.65,28.82,28.82,0,0,1-2.65,2.35A17.46,17.46,0,0,1,14,21Z"/><path class="cls-2" d="M9,19a7.11,7.11,0,0,1,.95-2.05,10.49,10.49,0,0,1,1.35-1.65,10.31,10.31,0,0,1,1.65-1.35A7,7,0,0,1,15,13a7,7,0,0,1-.94,2.06,10.31,10.31,0,0,1-1.35,1.65,10.49,10.49,0,0,1-1.65,1.35A7.11,7.11,0,0,1,9,19Z"/></svg>