<svg id="icons" xmlns="http://www.w3.org/2000/svg" viewBox="0 0 32 32"><defs><style>.cls-1{fill:#fddc49;}.cls-2{fill:#e8c631;}</style></defs><title>Pineapple</title><path class="cls-1" d="M16,3A13,13,0,1,0,29,16,13,13,0,0,0,16,3Zm2.83,15.83L16,20l-2.83-1.17L12,16l1.17-2.83L16,12l2.83,1.17L20,16Z"/><path class="cls-2" d="M16,27.5a.5.5,0,0,1-.5-.5V22a.5.5,0,1,1,1,0v5A.5.5,0,0,1,16,27.5Z"/><path class="cls-2" d="M16,10.49a.5.5,0,0,1-.5-.5V5a.5.5,0,0,1,1,0v5A.5.5,0,0,1,16,10.49Z"/><path class="cls-2" d="M10,16.5H5a.5.5,0,0,1,0-1h5a.5.5,0,1,1,0,1Z"/><path class="cls-2" d="M27,16.5H22a.5.5,0,1,1,0-1h5a.5.5,0,0,1,0,1Z"/><path class="cls-2" d="M11.75,12.25a.5.5,0,0,1-.35-.15L7.87,8.58a.5.5,0,0,1,.71-.71L12.1,11.4a.5.5,0,0,1-.35.85Z"/><path class="cls-2" d="M23.78,24.28a.5.5,0,0,1-.35-.15L19.9,20.6a.5.5,0,0,1,.71-.71l3.53,3.53a.5.5,0,0,1-.35.85Z"/><path class="cls-2" d="M8.22,24.28a.5.5,0,0,1-.35-.85L11.4,19.9a.5.5,0,0,1,.71.71L8.58,24.13A.5.5,0,0,1,8.22,24.28Z"/><path class="cls-2" d="M20.25,12.25a.5.5,0,0,1-.35-.85l3.53-3.53a.5.5,0,0,1,.71.71L20.6,12.1A.5.5,0,0,1,20.25,12.25Z"/></svg>