<svg id="icons" xmlns="http://www.w3.org/2000/svg" viewBox="0 0 32 32"><defs><style>.cls-1{fill:#ffbb56;}.cls-2{fill:#ffd08b;}.cls-3{fill:#db2626;}.cls-4{fill:#fff3e0;}</style></defs><title>Pizza slice</title><path class="cls-1" d="M30,3.38a30.69,30.69,0,0,0-28,0L16,32Z"/><path class="cls-2" d="M3.59,6.62,16,32,28.41,6.62a30.68,30.68,0,0,0-24.83,0Z"/><path class="cls-3" d="M20.3,8.41l-2.12,2.12a1,1,0,0,1-1.41-1.41l1.41-1.41a1,1,0,0,0-1.41-1.41L9.7,13.36a1,1,0,0,0,1.41,1.41l.71-.71a1,1,0,0,1,1.41,1.41L11.82,16.9a1,1,0,0,0,1.41,1.41l2.12-2.12a1,1,0,0,1,1.41,1.41l-.71.71a1,1,0,1,0,1.41,1.41l4.95-4.95A1,1,0,0,0,21,13.36l-.71.71a1,1,0,0,1-1.41-1.41l2.83-2.83A1,1,0,0,0,20.3,8.41Z"/><path class="cls-3" d="M9.65,10.15a1,1,0,0,1-.71-1.71l2-2a1,1,0,0,1,1.41,1.41l-2,2A1,1,0,0,1,9.65,10.15Z"/><path class="cls-4" d="M14.06,19.93a1,1,0,0,1-.71-1.71l2-2a1,1,0,0,1,1.41,1.41l-2,2A1,1,0,0,1,14.06,19.93Z"/><path class="cls-4" d="M14.65,25a1,1,0,0,1-.71-1.71l2-2a1,1,0,0,1,1.41,1.41l-2,2A1,1,0,0,1,14.65,25Z"/><path class="cls-4" d="M19.6,14.39a1,1,0,0,1-.71-1.71l5-5A1,1,0,0,1,25.3,9.1l-5,5A1,1,0,0,1,19.6,14.39Z"/><path class="cls-4" d="M10.16,12.51a1,1,0,0,1-.71-1.71l5-5a1,1,0,0,1,1.41,1.41l-5,5A1,1,0,0,1,10.16,12.51Z"/></svg>