<svg id="icons" xmlns="http://www.w3.org/2000/svg" viewBox="0 0 32 32"><defs><style>.cls-1{fill:#e7cfdc;}.cls-2{fill:#cf9fb9;}</style></defs><title>Red Onion</title><path class="cls-1" d="M16,32C8.28,32,2,26,2,18.67,2,12,7.83,7.07,12,4.78V0h8V4.78C24.17,7.07,30,12,30,18.67,30,26,23.72,32,16,32Z"/><path class="cls-2" d="M16,30.5c-6.89,0-12.5-5.31-12.5-11.83s6.38-11.19,10-13V0h1V6.32l-.29.14C10.85,8,4.5,12.62,4.5,18.67S9.66,29.5,16,29.5s11.5-4.86,11.5-10.83S21.15,8,17.79,6.45l-.29-.14V0h1V5.69c3.62,1.79,10,6.6,10,13S22.89,30.5,16,30.5Z"/><path class="cls-2" d="M16,28.17a9.27,9.27,0,0,1-9.5-9c0-6.73,8.89-11.41,9.27-11.61L16,7.44l.23.12c.38.2,9.27,4.88,9.27,11.61A9.27,9.27,0,0,1,16,28.17Zm0-19.6c-1.38.78-8.5,5-8.5,10.6a8.27,8.27,0,0,0,8.5,8,8.27,8.27,0,0,0,8.5-8C24.5,13.61,17.38,9.35,16,8.57Z"/><path class="cls-2" d="M16,25.83a6.35,6.35,0,0,1-6.5-6.17c0-4.56,6-8.27,6.24-8.43l.26-.16.26.16c.25.16,6.24,3.87,6.24,8.43A6.35,6.35,0,0,1,16,25.83Zm0-13.57c-1.12.75-5.5,3.9-5.5,7.4A5.35,5.35,0,0,0,16,24.83a5.35,5.35,0,0,0,5.5-5.17C21.5,16.16,17.13,13,16,12.26Z"/><path class="cls-2" d="M16,23.5a3.42,3.42,0,0,1-3.5-3.33c0-2.36,3-5.09,3.17-5.21l.33-.3.33.3c.13.11,3.17,2.84,3.17,5.21A3.42,3.42,0,0,1,16,23.5ZM16,16c-.92.9-2.5,2.75-2.5,4.15a2.51,2.51,0,0,0,5,0C18.5,18.76,16.92,16.92,16,16Z"/></svg>