<svg id="icons" xmlns="http://www.w3.org/2000/svg" viewBox="0 0 32 32"><defs><style>.cls-1{fill:#f56437;}.cls-2{fill:#db2626;}.cls-3{fill:#fff;}.cls-4{fill:#38833c;}</style></defs><title>Sweet Chili Sauce</title><path class="cls-1" d="M23,32H9a2,2,0,0,1-2-2V14a6,6,0,0,1,6-6h0V4h6V8h0a6,6,0,0,1,6,6V30A2,2,0,0,1,23,32Z"/><rect class="cls-2" x="13" width="6" height="4"/><rect class="cls-3" x="9" y="13" width="14" height="16" rx="1" ry="1"/><path class="cls-2" d="M20.09,20A11.9,11.9,0,0,1,11,24a25.87,25.87,0,0,0,7.27-6Z"/><path class="cls-4" d="M19.86,19.75h0a.76.76,0,0,0,0-1l-.44-.48a.61.61,0,0,0-.92,0h0Z"/><path class="cls-4" d="M19.64,18.75a.22.22,0,0,0,.16-.07l1.13-1.25a.27.27,0,0,0,0-.35.21.21,0,0,0-.32,0l-1.13,1.25a.27.27,0,0,0,0,.35A.22.22,0,0,0,19.64,18.75Z"/></svg>