<svg id="icons" xmlns="http://www.w3.org/2000/svg" viewBox="0 0 32 32"><defs><style>.cls-1{fill:#fddc49;}.cls-2{fill:#eacc46;}.cls-3{fill:#38833c;}</style></defs><title>Sweet Corn</title><path class="cls-1" d="M16,1h0a4.32,4.32,0,0,1,4.31,4L22,27H10L11.69,5A4.32,4.32,0,0,1,16,1Z"/><path class="cls-2" d="M19.5,3V2.8a4.32,4.32,0,0,0-1-1V3h-2V1A4.27,4.27,0,0,0,16,1a4.26,4.26,0,0,0-.5,0V3h-2V1.81a4.32,4.32,0,0,0-1,1V3h-.12a4.28,4.28,0,0,0-.48,1h.6V6h-.89l-.08,1h1V9H11.38l-.08,1H12.5v2H11.15l-.08,1H12.5v2H10.92l-.08,1H12.5v2H10.69l-.08,1H12.5v2h-2l-.08,1H12.5v3h1V22h2v3h1V22h2v3h1V22h2.12l-.08-1h-2V19h1.88l-.08-1H19.5V16h1.65l-.08-1H19.5V13h1.42l-.08-1H19.5V10h1.19l-.08-1H19.5V7h1l-.08-1H19.5V4h.6a4.27,4.27,0,0,0-.48-1Zm-4,18h-2V19h2Zm0-3h-2V16h2Zm0-3h-2V13h2Zm0-3h-2V10h2Zm0-3h-2V7h2Zm0-3h-2V4h2Zm3,15h-2V19h2Zm0-3h-2V16h2Zm0-3h-2V13h2Zm0-3h-2V10h2Zm0-3h-2V7h2Zm0-3h-2V4h2Z"/><path class="cls-3" d="M16,25,8,15v8a8,8,0,0,0,16,0V15Z"/></svg>